<svg width="80" height="80" viewBox="0 0 80 80" fill="none" xmlns="http://www.w3.org/2000/svg">
<g clip-path="url(#clip0_2613_8084)">
<path d="M31.7839 4.27365L38.21 10.8761C39.1915 11.8846 40.8116 11.8846 41.7931 10.8761L48.2191 4.27364C49.0371 3.43317 50.4599 3.8144 50.748 4.95127L53.0119 13.8822C53.3577 15.2463 54.7607 16.0564 56.115 15.6738L64.9813 13.1689C66.11 12.85 67.1515 13.8915 66.8326 15.0202L64.3277 23.8865C63.9451 25.2408 64.7552 26.6438 66.1193 26.9896L75.0502 29.2535C76.1871 29.5416 76.5683 30.9644 75.7279 31.7824L69.1254 38.2085C68.1169 39.1899 68.1169 40.81 69.1254 41.7915L75.7279 48.2176C76.5683 49.0356 76.1871 50.4583 75.0502 50.7465L66.1193 53.0104C64.7552 53.3562 63.9451 54.7592 64.3277 56.1134L66.8326 64.9798C67.1515 66.1085 66.11 67.15 64.9813 66.8311L56.115 64.3262C54.7607 63.9436 53.3577 64.7537 53.0119 66.1178L50.748 75.0487C50.4599 76.1856 49.0371 76.5668 48.2191 75.7264L41.7931 69.1239C40.8116 68.1154 39.1915 68.1154 38.21 69.1239L31.7839 75.7264C30.9659 76.5668 29.5432 76.1856 29.255 75.0487L26.9911 66.1178C26.6453 64.7537 25.2423 63.9436 23.8881 64.3262L15.0217 66.8311C13.893 67.15 12.8515 66.1085 13.1704 64.9798L15.6753 56.1134C16.0579 54.7592 15.2478 53.3562 13.8837 53.0104L4.95279 50.7465C3.81591 50.4584 3.43469 49.0356 4.27516 48.2176L10.8777 41.7915C11.8861 40.8101 11.8861 39.19 10.8777 38.2085L4.27516 31.7824C3.43469 30.9644 3.81591 29.5416 4.95278 29.2535L13.8837 26.9896C15.2478 26.6438 16.0579 25.2408 15.6753 23.8865L13.1704 15.0202C12.8515 13.8915 13.893 12.85 15.0217 13.1689L23.8881 15.6738C25.2423 16.0564 26.6453 15.2463 26.9911 13.8822L29.255 4.95127C29.5432 3.8144 30.9659 3.43318 31.7839 4.27365Z" fill="#FFD874" stroke="#1A1A1A"/>
<!-- <rect x="25.1133" y="34.6713" width="3" height="3" rx="1" transform="rotate(-15 25.1133 34.6713)" fill="#1A1A1A"/> -->
<!-- <rect x="47.3281" y="28.7185" width="3" height="3" rx="1" transform="rotate(-15 47.3281 28.7185)" fill="#1A1A1A"/> -->

<!-- Blinking left eye -->
<rect x="25.1133" y="34.6713" width="3" height="3" rx="1" transform="rotate(-15 25.1133 34.6713)" fill="#1A1A1A">
	<!-- Animation 1: Change rect attributes (linear) -->
	<animate
		id="x1"
		attributeName="x"
		values="25.1133;23.6992;25.1133"
		keyTimes="0;0.5;1"
		dur="400ms"
		begin="1.5s;x1.end+1.5s"
		fill="freeze"
	/>
	<animate
		id="y1"
		attributeName="y"
		values="34.6713;37.1211;34.6713"
		keyTimes="0;0.5;1"
		dur="400ms"
		begin="1.5s;y1.end+1.5s"
		fill="freeze"
	/>
	<animate
		id="width1"
		attributeName="width"
		values="3;7;3"
		keyTimes="0;0.5;1"
		dur="400ms"
		begin="1.5s;width1.end+1.5s"
		fill="freeze"
	/>
	<animate
		id="height1"
		attributeName="height"
		values="3;1;3"
		keyTimes="0;0.5;1"
		dur="400ms"
		begin="1.5s;height1.end+1.5s"
		fill="freeze"
	/>
	<animate
		id="rx1"
		attributeName="rx"
		values="1;0.5;1"
		keyTimes="0;0.5;1"
		dur="400ms"
		begin="1.5s;rx1.end+1.5s"
		fill="freeze"
	/>
</rect>

<!-- Blinking right eye -->
<rect x="47.3281" y="28.7185" width="3" height="3" rx="1" transform="rotate(-15 47.3281 28.7185)" fill="#1A1A1A">
  <!-- Animation 2: Change rect attributes (linear) -->
  <animate
    id="x2"
    attributeName="x"
    values="47.3281;45.9141;47.3281"
    keyTimes="0;0.5;1"
    dur="400ms"
    begin="1.5s;x2.end+1.5s"
    fill="freeze"
  />
  <animate
    id="y2"
    attributeName="y"
    values="28.7185;31.1685;28.7185"
    keyTimes="0;0.5;1"
    dur="400ms"
    begin="1.5s;y2.end+1.5s"
    fill="freeze"
  />
  <animate
    id="width2"
    attributeName="width"
    values="3;7;3"
    keyTimes="0;0.5;1"
    dur="400ms"
    begin="1.5s;width2.end+1.5s"
    fill="freeze"
  />
  <animate
    id="height2"
    attributeName="height"
    values="3;1;3"
    keyTimes="0;0.5;1"
    dur="400ms"
    begin="1.5s;height2.end+1.5s"
    fill="freeze"
  />
  <animate
    id="rx2"
    attributeName="rx"
    values="1;0.5;1"
    keyTimes="0;0.5;1"
    dur="400ms"
    begin="1.5s;rx2.end+1.5s"
    fill="freeze"
  />
</rect>

<path d="M28.2773 42.6229C28.2773 42.6229 32.3745 48.2543 41.5508 45.7956C50.7271 43.3368 51.4596 36.4112 51.4596 36.4112" stroke="#1A1A1A" stroke-linecap="round"/>
</g>
<defs>
<clipPath id="clip0_2613_8084">
<rect width="80" height="80" fill="white"/>
</clipPath>
</defs>
</svg>