<svg width="32" height="32" viewBox="0 0 32 32" fill="none" xmlns="http://www.w3.org/2000/svg">
<g clip-path="url(#clip0_2650_1524)">
<path d="M16.2667 1.60936L18.9192 6.75786C19.21 7.32239 19.8662 7.59417 20.471 7.40064L25.9871 5.63571C26.2194 5.56139 26.4386 5.78058 26.3643 6.01286L24.5994 11.529C24.4058 12.1338 24.6776 12.79 25.2421 13.0808L30.3906 15.7333C30.6074 15.845 30.6074 16.155 30.3906 16.2667L25.2421 18.9192C24.6776 19.21 24.4058 19.8662 24.5994 20.471L26.3643 25.9871C26.4386 26.2194 26.2194 26.4386 25.9871 26.3643L20.471 24.5994C19.8662 24.4058 19.21 24.6776 18.9192 25.2421L16.2667 30.3906C16.155 30.6074 15.845 30.6074 15.7333 30.3906L13.0808 25.2421C12.79 24.6776 12.1338 24.4058 11.529 24.5994L6.01286 26.3643C5.78058 26.4386 5.56139 26.2194 5.63571 25.9871L7.40064 20.471C7.59417 19.8662 7.32239 19.21 6.75786 18.9192L1.60936 16.2667C1.39256 16.155 1.39256 15.845 1.60936 15.7333L6.75786 13.0808C7.32239 12.79 7.59417 12.1338 7.40064 11.529L5.63571 6.01286C5.56139 5.78058 5.78058 5.56139 6.01286 5.63571L11.529 7.40064C12.1338 7.59417 12.79 7.32239 13.0808 6.75786L15.7333 1.60936C15.845 1.39256 16.155 1.39256 16.2667 1.60936Z" fill="#FFD874" stroke="#1A1A1A"/>
</g>
<defs>
<clipPath id="clip0_2650_1524">
<rect width="32" height="32" fill="white"/>
</clipPath>
</defs>
</svg>
