<svg width="100" height="100" viewBox="0 0 100 100" fill="none" xmlns="http://www.w3.org/2000/svg">
<circle cx="50" cy="50" r="50" fill="#363636"/>
<g clip-path="url(#clip0_320_477)">
<rect x="17.2941" y="25.8823" width="63.3382" height="44.0147" fill="white"/>
<path fill-rule="evenodd" clip-rule="evenodd" d="M20.9844 22.125C18.8668 22.125 16.8359 22.9662 15.3386 24.4636C13.8412 25.9609 13 27.9918 13 30.1094L13 33.4674C12.9993 33.5084 12.9993 33.5495 13 33.5906L13 68.8906C13 73.298 16.577 76.875 20.9844 76.875H78.0156C80.1332 76.875 82.1641 76.0338 83.6614 74.5364C85.1588 73.0391 86 71.0082 86 68.8906V30.1094C86 27.9918 85.1588 25.9609 83.6614 24.4636C82.1641 22.9662 80.1332 22.125 78.0156 22.125H20.9844ZM79.1562 31.5694V30.1094C79.1562 29.8069 79.0361 29.5167 78.8222 29.3028C78.6083 29.0889 78.3181 28.9688 78.0156 28.9688H20.9844C20.6819 28.9688 20.3917 29.0889 20.1778 29.3028C19.9639 29.5167 19.8438 29.8069 19.8438 30.1094V31.5694L49.5 48.9525L79.1562 31.5694ZM19.8438 39.5081V68.8952C19.8438 69.5248 20.3548 70.0358 20.9844 70.0358H78.0156C78.3181 70.0358 78.6083 69.9156 78.8222 69.7017C79.0361 69.4878 79.1562 69.1977 79.1562 68.8952V39.5036L51.2338 55.8738C50.7082 56.1827 50.1096 56.3455 49.5 56.3455C48.8904 56.3455 48.2918 56.1827 47.7663 55.8738L19.8438 39.5036V39.5081Z" fill="#363636"/>
</g>
<defs>
<clipPath id="clip0_320_477">
<rect width="73" height="73" fill="white" transform="translate(13 13)"/>
</clipPath>
</defs>
</svg>
