<svg width="16" height="16" viewBox="0 0 16 16" fill="none" xmlns="http://www.w3.org/2000/svg">
<g clip-path="url(#clip0_2634_8807)">
<path fill-rule="evenodd" clip-rule="evenodd" d="M12.4038 1.41421L4.07763 9.7404L5.68629 11.3491L14.0125 3.02288L12.4038 1.41421ZM13.0756 0.671751C12.7046 0.300753 12.1031 0.300754 11.7321 0.671752L3.33516 9.06864C2.96417 9.43964 2.96417 10.0411 3.33516 10.4121L5.01454 12.0915C5.38554 12.4625 5.98705 12.4625 6.35805 12.0915L14.7549 3.69463C15.1259 3.32363 15.1259 2.72213 14.7549 2.35113L13.0756 0.671751Z" fill="#1A1A1A"/>
<path fill-rule="evenodd" clip-rule="evenodd" d="M1.47297 13.9527L3.90934 13.0723L2.35343 11.5163L1.47297 13.9527ZM2.38017 11.4423C2.38017 11.4423 2.38017 11.4423 2.38017 11.4423ZM3.96498 13.1279C3.96498 13.1279 3.96498 13.1279 3.96498 13.1279ZM0.496272 13.7131C0.222705 14.4701 0.955591 15.203 1.7126 14.9294L4.32321 13.986C4.97765 13.7495 5.16413 12.9128 4.67208 12.4208L3.0049 10.7536C2.51285 10.2616 1.6762 10.448 1.4397 11.1025L0.496272 13.7131Z" fill="#1A1A1A"/>
</g>
<defs>
<clipPath id="clip0_2634_8807">
<rect width="15.2" height="15.2" fill="white"/>
</clipPath>
</defs>
</svg>
