<svg width="26" height="16" viewBox="0 0 26 16" fill="none" xmlns="http://www.w3.org/2000/svg">
<g clip-path="url(#clip0_2638_8828)">
<path fill-rule="evenodd" clip-rule="evenodd" d="M17.1867 4.27583L19.2287 6.31776C19.9902 7.07928 19.9902 8.31395 19.2287 9.07548L17.1851 11.119L18.6239 12.5578L21.3392 9.84255C21.3421 9.83963 21.345 9.83672 21.348 9.83384L23.4842 7.69762L18.6246 2.83797L17.1867 4.27583ZM22.7534 9.84255C22.5695 9.65856 22.3316 9.56125 22.0906 9.55063C22.3312 9.56112 22.5689 9.65805 22.7534 9.84255ZM17.9528 2.09551C18.3238 1.72451 18.9253 1.72451 19.2963 2.09551L24.2267 7.02586C24.5977 7.39686 24.5977 7.99837 24.2267 8.36937L22.0464 10.5497L22.0463 10.5497L22.0463 10.5497L19.2957 13.3003C18.9247 13.6713 18.3231 13.6713 17.9521 13.3003L16.4426 11.7908C16.0716 11.4198 16.0716 10.8183 16.4426 10.4473L18.5215 8.36837C18.8925 7.99737 18.8925 7.39587 18.5215 7.02487L16.4443 4.94758C16.0733 4.57658 16.0733 3.97508 16.4443 3.60408L17.9528 2.09551Z" fill="#1A1A1A"/>
<path fill-rule="evenodd" clip-rule="evenodd" d="M7.71137 11.1215L5.66842 9.07854C4.90691 8.31703 4.90691 7.08237 5.66843 6.32085L7.71185 4.27742L6.27399 2.83956L1.79841 7.31515C1.7953 7.31834 1.79216 7.32152 1.789 7.32468L1.41439 7.69929L6.27399 12.5589L7.71137 11.1215ZM6.94573 13.3013C6.57474 13.6723 5.97324 13.6723 5.60224 13.3013L0.541061 8.24016C0.242348 7.94145 0.242348 7.45713 0.541063 7.15842L1.0819 6.61758L5.60225 2.09711C5.97324 1.72611 6.57475 1.72611 6.94574 2.09711L8.45431 3.60568C8.8253 3.97667 8.8253 4.57817 8.45431 4.94917L6.37553 7.02795C6.00453 7.39894 6.00453 8.00045 6.37552 8.37144L8.45383 10.4497C8.82483 10.8207 8.82482 11.4222 8.45383 11.7932L6.94573 13.3013Z" fill="#1A1A1A"/>
<path fill-rule="evenodd" clip-rule="evenodd" d="M12.9786 1.4933L9.77483 13.4499L11.7374 13.9758L14.9412 2.01917L12.9786 1.4933ZM13.1891 0.514433C12.6823 0.378638 12.1614 0.679392 12.0256 1.18618L8.79596 13.2394C8.66016 13.7462 8.96092 14.2671 9.46771 14.4029L11.5269 14.9546C12.0337 15.0904 12.5546 14.7897 12.6904 14.2829L15.92 2.22969C16.0558 1.7229 15.7551 1.20198 15.2483 1.06618L13.1891 0.514433Z" fill="#1A1A1A"/>
</g>
<defs>
<clipPath id="clip0_2638_8828">
<rect width="25.175" height="15.2" fill="white"/>
</clipPath>
</defs>
</svg>
