<svg width="53" height="32" viewBox="0 0 53 32" fill="none" xmlns="http://www.w3.org/2000/svg">
<g clip-path="url(#clip0_2638_8812)">
<mask id="path-1-inside-1_2638_8812" fill="white">
<path fill-rule="evenodd" clip-rule="evenodd" d="M40.6234 4.41303C39.8424 3.63198 38.576 3.63198 37.795 4.41303L34.619 7.58896C33.838 8.37001 33.838 9.63634 34.619 10.4174L38.9925 14.7909C39.7736 15.5719 39.7736 16.8382 38.9925 17.6193L34.6161 21.9957C33.8351 22.7767 33.8351 24.0431 34.6161 24.8241L37.794 28.002C38.5751 28.7831 39.8414 28.7831 40.6225 28.002L50.139 18.4855C50.1391 18.4854 50.1391 18.4854 50.139 18.4853V18.4853C50.139 18.4853 50.139 18.4852 50.139 18.4852L51.2781 17.3461C51.9073 16.717 51.9073 15.6969 51.2781 15.0678L40.6234 4.41303Z"/>
</mask>
<path fill-rule="evenodd" clip-rule="evenodd" d="M40.6234 4.41303C39.8424 3.63198 38.576 3.63198 37.795 4.41303L34.619 7.58896C33.838 8.37001 33.838 9.63634 34.619 10.4174L38.9925 14.7909C39.7736 15.5719 39.7736 16.8382 38.9925 17.6193L34.6161 21.9957C33.8351 22.7767 33.8351 24.0431 34.6161 24.8241L37.794 28.002C38.5751 28.7831 39.8414 28.7831 40.6225 28.002L50.139 18.4855C50.1391 18.4854 50.1391 18.4854 50.139 18.4853V18.4853C50.139 18.4853 50.139 18.4852 50.139 18.4852L51.2781 17.3461C51.9073 16.717 51.9073 15.6969 51.2781 15.0678L40.6234 4.41303Z" fill="#FFD874"/>
<path d="M51.2781 15.0678L51.9852 14.3607L51.2781 15.0678ZM50.139 18.4855L50.8461 19.1926L50.139 18.4855ZM40.6234 4.41303L39.9163 5.12013L40.6234 4.41303ZM35.3262 8.29607L38.5021 5.12013L37.0879 3.70592L33.9119 6.88185L35.3262 8.29607ZM39.6996 14.0838L35.3262 9.71028L33.9119 11.1245L38.2854 15.498L39.6996 14.0838ZM35.3232 22.7028L39.6996 18.3264L38.2854 16.9122L33.909 21.2886L35.3232 22.7028ZM38.5011 27.2949L35.3232 24.117L33.909 25.5312L37.0869 28.7092L38.5011 27.2949ZM49.4319 17.7784L39.9154 27.2949L41.3296 28.7092L50.8461 19.1926L49.4319 17.7784ZM50.571 16.639L49.4319 17.7781L50.8461 19.1923L51.9853 18.0532L50.571 16.639ZM39.9163 5.12013L50.571 15.7749L51.9852 14.3607L41.3305 3.70592L39.9163 5.12013ZM51.9853 18.0532C53.0049 17.0335 53.0049 15.3803 51.9852 14.3607L50.571 15.7749C50.8097 16.0135 50.8097 16.4004 50.571 16.639L51.9853 18.0532ZM50.8461 17.7782C51.2373 18.1694 51.236 18.8025 50.8461 19.1923L49.4319 17.7781C49.042 18.168 49.0407 18.8012 49.4319 19.1924L50.8461 17.7782ZM50.8461 19.1926C51.2367 18.802 51.2367 18.1688 50.8461 17.7782L49.4319 19.1924C49.0414 18.802 49.0414 18.1688 49.4319 17.7784L50.8461 19.1926ZM37.0869 28.7092C38.2585 29.8807 40.158 29.8807 41.3296 28.7092L39.9154 27.2949C39.5248 27.6855 38.8917 27.6855 38.5011 27.2949L37.0869 28.7092ZM33.909 21.2886C32.7374 22.4602 32.7374 24.3597 33.909 25.5312L35.3232 24.117C34.9327 23.7265 34.9327 23.0933 35.3232 22.7028L33.909 21.2886ZM38.2854 15.498C38.6759 15.8885 38.6759 16.5217 38.2854 16.9122L39.6996 18.3264C40.8712 17.1548 40.8712 15.2553 39.6996 14.0838L38.2854 15.498ZM38.5021 5.12013C38.8926 4.72961 39.5258 4.72961 39.9163 5.12013L41.3305 3.70592C40.1589 2.53435 38.2594 2.53435 37.0879 3.70592L38.5021 5.12013ZM33.9119 6.88185C32.7404 8.05343 32.7404 9.95292 33.9119 11.1245L35.3262 9.71028C34.9356 9.31976 34.9356 8.68659 35.3262 8.29607L33.9119 6.88185Z" fill="#1A1A1A" mask="url(#path-1-inside-1_2638_8812)"/>
<mask id="path-3-inside-2_2638_8812" fill="white">
<path fill-rule="evenodd" clip-rule="evenodd" d="M11.7941 28.003C12.5751 28.784 13.8415 28.784 14.6225 28.003L17.7975 24.828C18.5785 24.047 18.5785 22.7807 17.7975 21.9996L13.4225 17.6247C12.6415 16.8436 12.6415 15.5773 13.4225 14.7962L17.7989 10.4198C18.58 9.63877 18.58 8.37244 17.7989 7.59139L14.6229 4.41543C13.8419 3.63438 12.5756 3.63438 11.7945 4.41543L6.00407 10.2059C6.00398 10.206 6.00382 10.206 6.00373 10.2059V10.2059C6.00363 10.2058 6.00347 10.2058 6.00338 10.2059L1.41438 14.7949C0.633333 15.5759 0.633335 16.8423 1.41438 17.6233L11.7941 28.003Z"/>
</mask>
<path fill-rule="evenodd" clip-rule="evenodd" d="M11.7941 28.003C12.5751 28.784 13.8415 28.784 14.6225 28.003L17.7975 24.828C18.5785 24.047 18.5785 22.7807 17.7975 21.9996L13.4225 17.6247C12.6415 16.8436 12.6415 15.5773 13.4225 14.7962L17.7989 10.4198C18.58 9.63877 18.58 8.37244 17.7989 7.59139L14.6229 4.41543C13.8419 3.63438 12.5756 3.63438 11.7945 4.41543L6.00407 10.2059C6.00398 10.206 6.00382 10.206 6.00373 10.2059V10.2059C6.00363 10.2058 6.00347 10.2058 6.00338 10.2059L1.41438 14.7949C0.633333 15.5759 0.633335 16.8423 1.41438 17.6233L11.7941 28.003Z" fill="#FFD874"/>
<path d="M1.41438 17.6233L2.12149 16.9162L1.41438 17.6233ZM6.00407 10.2059L6.71118 10.913L6.00407 10.2059ZM17.7989 10.4198L18.506 11.1269L17.7989 10.4198ZM17.0903 24.1209L13.9154 27.2959L15.3296 28.7101L18.5046 25.5351L17.0903 24.1209ZM12.7154 18.3318L17.0903 22.7067L18.5046 21.2925L14.1296 16.9175L12.7154 18.3318ZM17.0918 9.71271L12.7154 14.0891L14.1296 15.5033L18.506 11.1269L17.0918 9.71271ZM13.9158 5.12253L17.0918 8.2985L18.506 6.88429L15.3301 3.70832L13.9158 5.12253ZM6.71118 10.913L12.5016 5.12253L11.0874 3.70832L5.29697 9.49877L6.71118 10.913ZM2.12149 15.502L6.71049 10.913L5.29627 9.49877L0.707275 14.0878L2.12149 15.502ZM12.5012 27.2959L2.12149 16.9162L0.707277 18.3304L11.087 28.7101L12.5012 27.2959ZM0.707275 14.0878C-0.4643 15.2593 -0.464295 17.1588 0.707277 18.3304L2.12149 16.9162C1.73096 16.5257 1.73097 15.8925 2.12149 15.502L0.707275 14.0878ZM6.71083 9.49877C6.32084 9.10878 5.68752 9.10752 5.29627 9.49877L6.71049 10.913C6.31943 11.304 5.68642 11.3028 5.29662 10.913L6.71083 9.49877ZM5.29697 9.49877C5.68739 9.10834 6.3204 9.10834 6.71083 9.49877L5.29662 10.913C5.68724 11.3036 6.32056 11.3036 6.71118 10.913L5.29697 9.49877ZM15.3301 3.70832C14.1585 2.53675 12.259 2.53675 11.0874 3.70832L12.5016 5.12253C12.8921 4.73201 13.5253 4.73201 13.9158 5.12253L15.3301 3.70832ZM18.506 11.1269C19.6776 9.95535 19.6776 8.05586 18.506 6.88429L17.0918 8.2985C17.4823 8.68902 17.4823 9.32219 17.0918 9.71271L18.506 11.1269ZM14.1296 16.9175C13.7391 16.527 13.7391 15.8939 14.1296 15.5033L12.7154 14.0891C11.5438 15.2607 11.5438 17.1602 12.7154 18.3318L14.1296 16.9175ZM13.9154 27.2959C13.5249 27.6864 12.8917 27.6864 12.5012 27.2959L11.087 28.7101C12.2585 29.8817 14.158 29.8817 15.3296 28.7101L13.9154 27.2959ZM18.5046 25.5351C19.6761 24.3636 19.6761 22.4641 18.5046 21.2925L17.0903 22.7067C17.4809 23.0972 17.4809 23.7304 17.0903 24.1209L18.5046 25.5351Z" fill="#1A1A1A" mask="url(#path-3-inside-2_2638_8812)"/>
<rect x="26.188" y="1.17878" width="7.48799" height="29.2703" rx="1.5" transform="rotate(15 26.188 1.17878)" fill="#FFD874" stroke="#1A1A1A"/>
</g>
<defs>
<clipPath id="clip0_2638_8812">
<rect width="53" height="32" fill="white"/>
</clipPath>
</defs>
</svg>
