<svg width="80" height="48" viewBox="0 0 80 48" fill="none" xmlns="http://www.w3.org/2000/svg">
<g clip-path="url(#clip0_3219_25410)">
<mask id="path-1-inside-1_3219_25410" fill="white">
<path fill-rule="evenodd" clip-rule="evenodd" d="M59.5634 4.49712L50.5569 13.5037L61.3601 24.3069L50.5532 35.1138L59.5627 44.1233L75.959 27.727L75.9585 27.7264L79.3756 24.3093L59.5634 4.49712Z"/>
</mask>
<path fill-rule="evenodd" clip-rule="evenodd" d="M59.5634 4.49712L50.5569 13.5037L61.3601 24.3069L50.5532 35.1138L59.5627 44.1233L75.959 27.727L75.9585 27.7264L79.3756 24.3093L59.5634 4.49712Z" fill="#FFD874"/>
<path d="M50.5569 13.5037L49.8498 12.7966L49.1427 13.5037L49.8498 14.2108L50.5569 13.5037ZM59.5634 4.49712L60.2705 3.79001L59.5634 3.08291L58.8563 3.79001L59.5634 4.49712ZM61.3601 24.3069L62.0672 25.014L62.7743 24.3069L62.0672 23.5998L61.3601 24.3069ZM50.5532 35.1138L49.8461 34.4067L49.139 35.1138L49.8461 35.8209L50.5532 35.1138ZM59.5627 44.1233L58.8556 44.8304L59.5627 45.5375L60.2699 44.8304L59.5627 44.1233ZM75.959 27.727L76.6661 28.4341L77.3732 27.727L76.6661 27.0199L75.959 27.727ZM75.9585 27.7264L75.2514 27.0193L74.5442 27.7264L75.2514 28.4335L75.9585 27.7264ZM79.3756 24.3093L80.0827 25.0164L80.7898 24.3093L80.0827 23.6022L79.3756 24.3093ZM51.264 14.2108L60.2705 5.20423L58.8563 3.79001L49.8498 12.7966L51.264 14.2108ZM62.0672 23.5998L51.264 12.7966L49.8498 14.2108L60.653 25.014L62.0672 23.5998ZM51.2603 35.8209L62.0672 25.014L60.653 23.5998L49.8461 34.4067L51.2603 35.8209ZM60.2699 43.4162L51.2603 34.4067L49.8461 35.8209L58.8556 44.8304L60.2699 43.4162ZM75.2519 27.0199L58.8556 43.4162L60.2699 44.8304L76.6661 28.4341L75.2519 27.0199ZM75.2514 28.4335L75.2519 28.4341L76.6661 27.0199L76.6656 27.0193L75.2514 28.4335ZM78.6685 23.6022L75.2514 27.0193L76.6656 28.4335L80.0827 25.0164L78.6685 23.6022ZM58.8563 5.20423L78.6685 25.0164L80.0827 23.6022L60.2705 3.79001L58.8563 5.20423Z" fill="#1A1A1A" mask="url(#path-1-inside-1_3219_25410)"/>
<mask id="path-3-inside-2_3219_25410" fill="white">
<path fill-rule="evenodd" clip-rule="evenodd" d="M20.5669 44.1264L29.572 35.1213L18.7659 24.3152L29.5728 13.5083L20.5662 4.50171L4.16988 20.898L4.17044 20.8986L0.754768 24.3142L20.5669 44.1264Z"/>
</mask>
<path fill-rule="evenodd" clip-rule="evenodd" d="M20.5669 44.1264L29.572 35.1213L18.7659 24.3152L29.5728 13.5083L20.5662 4.50171L4.16988 20.898L4.17044 20.8986L0.754768 24.3142L20.5669 44.1264Z" fill="#FFD874"/>
<path d="M29.572 35.1213L30.2791 35.8284L30.9862 35.1213L30.2791 34.4142L29.572 35.1213ZM20.5669 44.1264L19.8598 44.8335L20.5669 45.5406L21.2741 44.8335L20.5669 44.1264ZM18.7659 24.3152L18.0588 23.6081L17.3517 24.3152L18.0588 25.0223L18.7659 24.3152ZM29.5728 13.5083L30.2799 14.2154L30.987 13.5083L30.2799 12.8012L29.5728 13.5083ZM20.5662 4.50171L21.2733 3.7946L20.5662 3.0875L19.8591 3.7946L20.5662 4.50171ZM4.16988 20.898L3.46277 20.1909L2.75567 20.898L3.46277 21.6051L4.16988 20.898ZM4.17044 20.8986L4.87755 21.6057L5.58466 20.8986L4.87755 20.1915L4.17044 20.8986ZM0.754768 24.3142L0.047661 23.6071L-0.659446 24.3142L0.047661 25.0213L0.754768 24.3142ZM28.8649 34.4142L19.8598 43.4193L21.2741 44.8335L30.2791 35.8284L28.8649 34.4142ZM18.0588 25.0223L28.8649 35.8284L30.2791 34.4142L19.473 23.6081L18.0588 25.0223ZM28.8656 12.8012L18.0588 23.6081L19.473 25.0223L30.2799 14.2154L28.8656 12.8012ZM19.8591 5.20882L28.8656 14.2154L30.2799 12.8012L21.2733 3.7946L19.8591 5.20882ZM4.87699 21.6051L21.2733 5.20882L19.8591 3.7946L3.46277 20.1909L4.87699 21.6051ZM4.87755 20.1915L4.87699 20.1909L3.46277 21.6051L3.46334 21.6057L4.87755 20.1915ZM1.46187 25.0213L4.87755 21.6057L3.46334 20.1915L0.047661 23.6071L1.46187 25.0213ZM21.2741 43.4193L1.46187 23.6071L0.047661 25.0213L19.8598 44.8335L21.2741 43.4193Z" fill="#1A1A1A" mask="url(#path-3-inside-2_3219_25410)"/>
<rect x="39.8575" y="1.46198" width="11.732" height="44.4055" transform="rotate(15 39.8575 1.46198)" fill="#FFD874" stroke="#1A1A1A"/>
</g>
<defs>
<clipPath id="clip0_3219_25410">
<rect width="79" height="47.6981" fill="white" transform="translate(0.75)"/>
</clipPath>
</defs>
</svg>
